<svg width="132" height="27" viewBox="0 0 132 27" fill="none" xmlns="http://www.w3.org/2000/svg">
<path d="M5.84 7.76V13.68H16.208V17.84H5.84V26H0.656V3.6H17.584V7.76H5.84ZM20.429 8.784H25.421V26H20.429V8.784ZM22.925 6.384C22.0077 6.384 21.261 6.11733 20.685 5.584C20.109 5.05067 19.821 4.38933 19.821 3.6C19.821 2.81067 20.109 2.14933 20.685 1.616C21.261 1.08267 22.0077 0.815998 22.925 0.815998C23.8423 0.815998 24.589 1.072 25.165 1.584C25.741 2.096 26.029 2.736 26.029 3.504C26.029 4.336 25.741 5.02933 25.165 5.584C24.589 6.11733 23.8423 6.384 22.925 6.384ZM30.054 2.256H35.046V26H30.054V2.256ZM52.033 25.168C51.5423 25.5307 50.9343 25.808 50.209 26C49.505 26.1707 48.7583 26.256 47.969 26.256C45.921 26.256 44.3317 25.7333 43.201 24.688C42.0917 23.6427 41.537 22.1067 41.537 20.08V13.008H38.881V9.168H41.537V4.976H46.529V9.168H50.817V13.008H46.529V20.016C46.529 20.7413 46.7103 21.3067 47.073 21.712C47.457 22.096 47.9903 22.288 48.673 22.288C49.4623 22.288 50.1343 22.0747 50.689 21.648L52.033 25.168ZM71.168 17.456C71.168 17.52 71.136 17.968 71.072 18.8H58.048C58.2827 19.8667 58.8373 20.7093 59.712 21.328C60.5867 21.9467 61.6747 22.256 62.976 22.256C63.872 22.256 64.6613 22.128 65.344 21.872C66.048 21.5947 66.6987 21.168 67.296 20.592L69.952 23.472C68.3307 25.328 65.9627 26.256 62.848 26.256C60.9067 26.256 59.1893 25.8827 57.696 25.136C56.2027 24.368 55.0507 23.312 54.24 21.968C53.4293 20.624 53.024 19.0987 53.024 17.392C53.024 15.7067 53.4187 14.192 54.208 12.848C55.0187 11.4827 56.1173 10.4267 57.504 9.68C58.912 8.912 60.48 8.528 62.208 8.528C63.8933 8.528 65.4187 8.89067 66.784 9.616C68.1493 10.3413 69.216 11.3867 69.984 12.752C70.7733 14.096 71.168 15.664 71.168 17.456ZM62.24 12.304C61.1093 12.304 60.16 12.624 59.392 13.264C58.624 13.904 58.1547 14.7787 57.984 15.888H66.464C66.2933 14.8 65.824 13.936 65.056 13.296C64.288 12.6347 63.3493 12.304 62.24 12.304ZM79.2595 11.056C79.8568 10.224 80.6568 9.59467 81.6595 9.168C82.6835 8.74133 83.8568 8.528 85.1795 8.528V13.136C84.6248 13.0933 84.2515 13.072 84.0595 13.072C82.6302 13.072 81.5102 13.4773 80.6995 14.288C79.8888 15.0773 79.4835 16.272 79.4835 17.872V26H74.4915V8.784H79.2595V11.056ZM112.247 12.72V16.88L97.0153 22.672V18.672L107.671 14.8L97.0153 10.896V6.928L112.247 12.72ZM131.404 12.72V16.88L116.172 22.672V18.672L126.828 14.8L116.172 10.896V6.928L131.404 12.72Z" fill="white"/>
</svg>
